<svg data-logo="logo" xmlns="http://www.w3.org/2000/svg" viewBox="0 0 161 27">
        <g id="logogram" transform="translate(0, 13.5) rotate(0) "></g>
        <g id="logotype" transform="translate(0, 1)"><path fill="#03301D" d="M8.40 25.49L8.40 25.49Q4.90 25.49 2.92 24.05Q0.95 22.62 0.95 20.10L0.95 20.10Q0.95 18.49 1.79 17.34Q2.63 16.18 4.31 15.44Q5.99 14.71 8.54 14.50L8.54 14.50L15.19 13.80Q16.00 13.73 16.40 13.40Q16.80 13.06 16.80 12.54L16.80 12.54L16.80 12.50Q16.80 11.87 16.28 11.44Q15.75 11.00 14.82 10.77Q13.90 10.54 12.60 10.54L12.60 10.54Q10.64 10.54 9.52 10.98Q8.40 11.42 8.16 12.29L8.16 12.29L1.79 12.29Q2.14 10.40 3.50 9.13Q4.87 7.85 7.19 7.18Q9.52 6.52 12.74 6.52L12.74 6.52Q16.28 6.52 18.59 7.27Q20.90 8.02 22.05 9.56Q23.21 11.10 23.21 13.45L23.21 13.45L23.21 25L17.12 25L17.12 19.75L17.78 20.55Q16.98 22.20 15.68 23.29Q14.39 24.37 12.58 24.93Q10.78 25.49 8.40 25.49ZM10.71 21.29L10.71 21.29Q12.01 21.29 13.11 20.96Q14.21 20.63 15.05 20.05Q15.89 19.47 16.35 18.70Q16.80 17.93 16.80 17.05L16.80 17.05L16.80 14.71L17.82 16.18Q17.29 16.49 16.42 16.74Q15.54 16.98 14.14 17.16L14.14 17.16L9.59 17.72Q8.54 17.86 8.03 18.26Q7.53 18.66 7.53 19.40L7.53 19.40Q7.53 20.27 8.35 20.78Q9.17 21.29 10.71 21.29ZM32.73 25L26.32 25L26.32 7.01L32.73 7.01L32.73 25ZM32.76 4.84L26.29 4.84L26.29 0.01L32.76 0.01L32.76 4.84ZM47.57 25.49L47.57 25.49Q43.68 25.49 40.97 24.30Q38.26 23.11 36.82 20.96Q35.38 18.80 35.38 16.00L35.38 16.00Q35.38 14.29 35.89 12.84Q36.40 11.38 37.43 10.21Q38.47 9.04 39.94 8.22Q41.41 7.39 43.33 6.96Q45.26 6.52 47.57 6.52L47.57 6.52Q51.03 6.52 53.50 7.32Q55.97 8.13 57.38 9.65Q58.80 11.17 59.15 13.38L59.15 13.38L52.50 13.38Q52.19 12.64 51.48 12.12Q50.79 11.59 49.81 11.31Q48.83 11.03 47.53 11.03L47.53 11.03Q46.41 11.03 45.50 11.26Q44.59 11.49 43.93 11.94Q43.26 12.40 42.82 13.01Q42.39 13.62 42.16 14.38Q41.93 15.13 41.93 16.00L41.93 16.00Q41.93 17.41 42.54 18.54Q43.16 19.68 44.40 20.33Q45.64 20.98 47.53 20.98L47.53 20.98Q49.45 20.98 50.68 20.29Q51.91 19.61 52.50 18.66L52.50 18.66L59.15 18.66Q58.84 20.73 57.40 22.25Q55.97 23.77 53.50 24.63Q51.03 25.49 47.57 25.49ZM68.53 25.49L68.53 25.49Q65.03 25.49 63.05 24.05Q61.08 22.62 61.08 20.10L61.08 20.10Q61.08 18.49 61.92 17.34Q62.76 16.18 64.44 15.44Q66.12 14.71 68.67 14.50L68.67 14.50L75.32 13.80Q76.13 13.73 76.53 13.40Q76.93 13.06 76.93 12.54L76.93 12.54L76.93 12.50Q76.93 11.87 76.41 11.44Q75.88 11.00 74.95 10.77Q74.03 10.54 72.73 10.54L72.73 10.54Q70.77 10.54 69.65 10.98Q68.53 11.42 68.28 12.29L68.28 12.29L61.92 12.29Q62.27 10.40 63.63 9.13Q65.00 7.85 67.32 7.18Q69.65 6.52 72.87 6.52L72.87 6.52Q76.41 6.52 78.72 7.27Q81.03 8.02 82.18 9.56Q83.34 11.10 83.34 13.45L83.34 13.45L83.34 25L77.25 25L77.25 19.75L77.91 20.55Q77.11 22.20 75.81 23.29Q74.52 24.37 72.71 24.93Q70.91 25.49 68.53 25.49ZM70.84 21.29L70.84 21.29Q72.14 21.29 73.24 20.96Q74.34 20.63 75.18 20.05Q76.02 19.47 76.48 18.70Q76.93 17.93 76.93 17.05L76.93 17.05L76.93 14.71L77.95 16.18Q77.42 16.49 76.55 16.74Q75.67 16.98 74.27 17.16L74.27 17.16L69.72 17.72Q68.67 17.86 68.16 18.26Q67.66 18.66 67.66 19.40L67.66 19.40Q67.66 20.27 68.48 20.78Q69.30 21.29 70.84 21.29ZM92.82 25L86.42 25L86.42 0.01L92.82 0.01L92.82 25ZM102.55 25L96.15 25L96.15 0.01L102.55 0.01L102.55 25ZM112.98 25L106.26 25L106.26 18.31L112.98 18.31L112.98 25ZM132.23 25L125.83 25Q122.96 25 121.28 23.46Q119.60 21.92 119.60 19.16L119.60 19.16L119.60 2.14L126.00 2.14L126.00 18.11Q126.00 19.40 126.68 20.10Q127.37 20.80 128.70 20.80L128.70 20.80L132.23 20.80L132.23 25ZM120.16 11.14L115.43 11.14L115.43 7.01L120.16 7.01L120.16 11.14ZM132.23 11.14L125.44 11.14L125.44 7.01L132.23 7.01L132.23 11.14ZM150.12 25L142.87 25L133.42 7.01L140.59 7.01L147.77 21.75L145.95 21.75L153.16 7.01L159.57 7.01L150.12 25Z"/></g>
        
      </svg>